<?xml version="1.0" encoding="UTF-8" standalone="no"?>
<!-- Created with Inkscape (http://www.inkscape.org/) -->

<svg
   xmlns:dc="http://purl.org/dc/elements/1.1/"
   xmlns:cc="http://creativecommons.org/ns#"
   xmlns:rdf="http://www.w3.org/1999/02/22-rdf-syntax-ns#"
   xmlns:svg="http://www.w3.org/2000/svg"
   xmlns="http://www.w3.org/2000/svg"
   version="1.1"
   width="16.046221"
   height="16.046471"
   id="svg3432">
  <defs
     id="defs3434" />
  <metadata
     id="metadata3437">
    <rdf:RDF>
      <cc:Work
         rdf:about="">
        <dc:format>image/svg+xml</dc:format>
        <dc:type
           rdf:resource="http://purl.org/dc/dcmitype/StillImage" />
        <dc:title></dc:title>
      </cc:Work>
    </rdf:RDF>
  </metadata>
  <g
     transform="translate(-366.97689,-524.33895)"
     id="layer1">
    <path
       d="m 382.14041,525.22165 c -0.5883,-0.58843 -1.297,-0.8827 -2.12571,-0.8827 h -10.02914 c -0.82871,0 -1.53741,0.29427 -2.12597,0.8827 -0.58843,0.58855 -0.8827,1.29726 -0.8827,2.12597 v 10.029 c 0,0.82872 0.29427,1.53742 0.8827,2.12597 0.58856,0.58856 1.29726,0.88283 2.12597,0.88283 h 10.029 c 0.82872,0 1.53742,-0.29427 2.12572,-0.88283 0.58856,-0.58855 0.88283,-1.29725 0.88283,-2.12597 v -10.029 c 0,-0.82871 -0.29427,-1.53754 -0.8827,-2.12597 z m -1.50947,7.37024 h -1.82824 v 6.63373 h -2.73709 v -6.63373 h -1.36854 v -2.28791 h 1.36854 v -1.36855 c 0,-0.98207 0.22991,-1.72372 0.68948,-2.22522 0.45955,-0.50148 1.21864,-0.75216 2.27739,-0.75216 h 1.82824 v 2.28792 h -1.14903 c -0.39006,0 -0.63908,0.0679 -0.74704,0.20374 -0.10797,0.13579 -0.16195,0.37429 -0.16195,0.71564 v 1.13863 h 2.06853 l -0.24029,2.28791 z"
       id="path6183-3"
       style="fill:#f5f3f0;fill-opacity:1" />
  </g>
</svg>
